<?xml version="1.0" encoding="UTF-8"?>
<svg width="20px" height="20px" viewBox="0 0 20 20" version="1.1" xmlns="http://www.w3.org/2000/svg" xmlns:xlink="http://www.w3.org/1999/xlink">
    <!-- Generator: Sketch 45.2 (43514) - http://www.bohemiancoding.com/sketch -->
    <title>Tr</title>
    <desc>Created with Sketch.</desc>
    <defs></defs>
    <g id="Symbols" stroke="none" stroke-width="1" fill="none" fill-rule="evenodd">
        <g id="Tr">
            <circle id="Shape-Copy-12" fill="#E30A17" fill-rule="nonzero" cx="10" cy="10" r="10"></circle>
            <path d="M9.96834617,13.7230769 C7.8588939,13.7230769 6.14860462,11.9871846 6.14860462,9.84615385 C6.14860462,7.70512308 7.8588939,5.96923077 9.96834617,5.96923077 C11.0970798,5.96923077 12.1116986,6.46644615 12.8111888,7.25685385 C11.9651161,5.90041538 10.473507,5 8.77467693,5 C6.13762286,5 4,7.17010769 4,9.84615385 C4,12.5222 6.13762286,14.6923077 8.77467693,14.6923077 C10.473507,14.6923077 11.9651161,13.7918923 12.8111888,12.4354538 C12.1116986,13.2258615 11.0970798,13.7230769 9.96834617,13.7230769" id="Fill-1" fill="#FFFFFF"></path>
            <polygon id="Fill-3" fill="#FFFFFF" points="16.0676103 10.2867133 17.1968523 8.73347692 15.3702929 9.32664615 14.2410509 7.77288112 14.2410509 9.69301538 12.4150201 10.2867133 14.2410509 10.8804112 14.2410509 12.8005455 15.3702929 11.2467804 17.1968523 11.8399497"></polygon>
        </g>
    </g>
</svg>